<svg width="30" height="30" viewBox="0 0 30 30" fill="none" xmlns="http://www.w3.org/2000/svg">
<g clip-path="url(#clip0)">
<path d="M28.7501 10.05H1.24992C0.560074 10.05 0 10.61 0 11.2999V26.25C0 28.3175 1.68251 30 3.75 30H26.25C28.3175 30 30 28.3175 30 26.25V11.2999C30 10.61 29.4399 10.05 28.7501 10.05Z" fill="#ECEFF1"/>
<path d="M26.25 3.75H3.75C1.67885 3.75 0 5.42885 0 7.5V11.2999H30V7.5C30 5.42885 28.3212 3.75 26.25 3.75Z" fill="#C6A567"/>
<path d="M7.49995 0H6.25003C5.55995 0 4.99988 0.560074 4.99988 1.24992V6.25008C4.99988 6.93993 5.55995 7.5 6.25003 7.5H7.49995C8.19003 7.5 8.74988 6.93993 8.74988 6.25008V1.24992C8.74988 0.560074 8.19003 0 7.49995 0Z" fill="#8D7954"/>
<path d="M23.75 0H22.5C21.81 0 21.2501 0.560074 21.2501 1.24992V6.25008C21.2501 6.93993 21.81 7.5 22.5 7.5H23.75C24.44 7.5 25.0001 6.93993 25.0001 6.25008V1.24992C25.0001 0.560074 24.44 0 23.75 0Z" fill="#8D7954"/>
<path d="M13.7501 25.0001C13.7187 25.0001 13.6862 24.9987 13.6551 24.9962C13.2912 24.9687 12.9575 24.7838 12.7425 24.4888L9.30495 19.8013C8.89754 19.2451 9.01748 18.4625 9.57366 18.0537C10.1301 17.645 10.9124 17.7663 11.3212 18.3224L13.8975 21.8351L20.0551 15.6775C20.5437 15.1888 21.3338 15.1888 21.8225 15.6775C22.3112 16.1662 22.3112 16.9563 21.8225 17.4449L14.6349 24.6325C14.3987 24.8701 14.0799 25.0001 13.7501 25.0001Z" fill="#C6A567"/>
</g>
<defs>
<clipPath id="clip0">
<rect width="30" height="30" fill="white"/>
</clipPath>
</defs>
</svg>
