<svg width="14" height="13" viewBox="0 0 14 13" fill="none" xmlns="http://www.w3.org/2000/svg">
<path d="M12.8968 6.08457L0.825598 0.0489539C0.639886 -0.0429731 0.417033 -0.00211668 0.274963 0.150166C0.13568 0.303378 0.113394 0.530874 0.222036 0.7073L3.78677 6.49963L0.222007 12.292C0.113365 12.4684 0.134722 12.6959 0.274934 12.8491C0.365933 12.9475 0.49036 12.9995 0.617572 12.9995C0.688142 12.9995 0.758712 12.9837 0.825569 12.9503L12.8968 6.91469C13.0537 6.83577 13.1531 6.67513 13.1531 6.49963C13.1531 6.32413 13.0537 6.16349 12.8968 6.08457ZM1.86648 11.3922L4.72737 6.74291C4.81929 6.59341 4.81929 6.40492 4.72737 6.25635L1.86648 1.60707L11.6507 6.49963L1.86648 11.3922Z" fill="#C9A768"/>
</svg>
